<?xml version="1.0" encoding="UTF-8"?>
<!DOCTYPE svg PUBLIC "-//W3C//DTD SVG 1.1//EN" "http://www.w3.org/Graphics/SVG/1.1/DTD/svg11.dtd">
<svg xmlns="http://www.w3.org/2000/svg" version="1.1" width="512px" height="512px" style="shape-rendering:geometricPrecision; text-rendering:geometricPrecision; image-rendering:optimizeQuality; fill-rule:evenodd; clip-rule:evenodd" xmlns:xlink="http://www.w3.org/1999/xlink">
<g><path style="opacity:0.998" fill="#3b579d" d="M 232.5,-0.5 C 247.833,-0.5 263.167,-0.5 278.5,-0.5C 368.144,10.3879 435.644,54.7213 481,132.5C 497.695,163.971 507.861,197.304 511.5,232.5C 511.5,247.833 511.5,263.167 511.5,278.5C 499.107,375.141 449.44,445.308 362.5,489C 349.471,494.731 336.138,499.565 322.5,503.5C 322.5,440.167 322.5,376.833 322.5,313.5C 344.51,313.833 366.51,313.5 388.5,312.5C 392.03,286.87 395.363,261.203 398.5,235.5C 373.167,235.5 347.833,235.5 322.5,235.5C 322.333,214.497 322.5,193.497 323,172.5C 327.336,157.236 337.502,149.569 353.5,149.5C 369.5,149.5 385.5,149.5 401.5,149.5C 401.5,126.167 401.5,102.833 401.5,79.5C 400.5,79.5 399.5,79.5 398.5,79.5C 372.875,76.4964 347.209,75.9964 321.5,78C 275.816,86.8316 249.649,114.332 243,160.5C 242.5,185.498 242.333,210.498 242.5,235.5C 220.167,235.5 197.833,235.5 175.5,235.5C 175.5,261.5 175.5,287.5 175.5,313.5C 197.833,313.5 220.167,313.5 242.5,313.5C 242.5,379.5 242.5,445.5 242.5,511.5C 239.167,511.5 235.833,511.5 232.5,511.5C 142.856,500.612 75.3562,456.279 30,378.5C 13.3053,347.029 3.1386,313.696 -0.5,278.5C -0.5,263.167 -0.5,247.833 -0.5,232.5C 10.3875,142.857 54.7208,75.3573 132.5,30C 163.971,13.3053 197.304,3.1386 232.5,-0.5 Z"/></g>
<g><path style="opacity:1" fill="#fdfefe" d="M 398.5,79.5 C 400.474,102.27 401.14,125.27 400.5,148.5C 384.658,148.17 368.991,148.504 353.5,149.5C 337.502,149.569 327.336,157.236 323,172.5C 322.5,193.497 322.333,214.497 322.5,235.5C 347.833,235.5 373.167,235.5 398.5,235.5C 395.363,261.203 392.03,286.87 388.5,312.5C 366.51,313.5 344.51,313.833 322.5,313.5C 322.5,376.833 322.5,440.167 322.5,503.5C 322.5,506.167 322.5,508.833 322.5,511.5C 295.833,511.5 269.167,511.5 242.5,511.5C 242.5,445.5 242.5,379.5 242.5,313.5C 220.167,313.5 197.833,313.5 175.5,313.5C 175.5,287.5 175.5,261.5 175.5,235.5C 197.833,235.5 220.167,235.5 242.5,235.5C 242.333,210.498 242.5,185.498 243,160.5C 249.649,114.332 275.816,86.8316 321.5,78C 347.209,75.9964 372.875,76.4964 398.5,79.5 Z"/></g>
<g><path style="opacity:1" fill="#c0c8df" d="M 398.5,79.5 C 399.5,79.5 400.5,79.5 401.5,79.5C 401.5,102.833 401.5,126.167 401.5,149.5C 385.5,149.5 369.5,149.5 353.5,149.5C 368.991,148.504 384.658,148.17 400.5,148.5C 401.14,125.27 400.474,102.27 398.5,79.5 Z"/></g>
</svg>
